<svg xmlns="http://www.w3.org/2000/svg" width="1116.037" height="3043.074" viewBox="0 0 1116.037 3043.074"><defs><style>.a,.e,.j,.o{fill:none;}.a,.b,.f{stroke:#6457f9;}.a,.b,.e,.j{stroke-linecap:round;}.a,.b,.e{stroke-linejoin:round;}.a,.b{stroke-width:5px;}.b,.f{fill:#6457f9;}.c,.d,.h{fill:#5a5a5a;}.c{font-size:21px;}.c,.d{font-family:SegoeUI, Segoe UI;letter-spacing:-0.014em;}.d{font-size:20px;}.e{stroke:#969696;stroke-width:3px;}.g{fill:#969696;}.h{font-size:23px;font-family:SegoeUI-Bold, Segoe UI;font-weight:700;}.i,.k{fill:#fff;}.j,.k,.m{stroke:#fff;}.j,.m{stroke-width:2px;}.k{stroke-width:0.2px;}.l,.m{fill:#b5b1ea;}.n{stroke:none;}</style></defs><g transform="translate(-571.898 -6633.031)"><path class="a" d="M277.9,253.776a73.01,73.01,0,0,1,73.01-73.01" transform="translate(690.596 6536.818)"/><line class="a" y1="82.053" transform="translate(1041.502 6635.531)"/><path class="b" d="M358.229,207.859h0Z" transform="translate(610.264 6582.736)"/><text class="c" transform="translate(753.5 8033.789)"><tspan x="0" y="0">Launch of Testnet</tspan></text><text class="d" transform="translate(1149 7720.636)"><tspan x="0" y="0">Public Distribution</tspan></text><text class="c" transform="translate(737.397 7399.718)"><tspan x="0" y="0">Private Distribution</tspan></text><text class="d" transform="translate(1163.5 7143.863)"><tspan x="0" y="0">Pre-Distribution Participation</tspan></text><text class="c" transform="translate(722.5 6765.553)"><tspan x="0" y="0">Whitepaper release</tspan></text><path class="a" d="M381.081,207.859a76.087,76.087,0,0,1-76.087,76.087" transform="translate(737.682 6588.888)"/><path class="a" d="M381.081,367.277a76.087,76.087,0,0,0-76.087-76.087" transform="translate(737.682 6739.579)"/><g transform="translate(1042.676 6872.834)"><line class="a" y1="157.936"/></g><path class="a" d="M704.992,318.283h0Z" transform="translate(757.508 6788.575)"/><path class="e" d="M381.081,207.859a76.087,76.087,0,0,1-76.087,76.087" transform="translate(737.682 7218.711)"/><path class="e" d="M381.081,207.859a76.087,76.087,0,0,1-76.087,76.087" transform="translate(737.682 7844.525)"/><path class="e" d="M381.081,367.277a76.087,76.087,0,0,0-76.087-76.087" transform="translate(737.682 7369.402)"/><line class="e" y1="157.936" transform="translate(1042.676 7502.66)"/><path class="e" d="M546.488,318.283h0Z" transform="translate(787.512 7418.396)"/><path class="a" d="M304.994,207.859a76.087,76.087,0,0,0,76.087,76.087" transform="translate(661.6 6901.793)"/><path class="a" d="M304.994,367.277a76.087,76.087,0,0,1,76.087-76.087" transform="translate(661.6 7052.484)"/><line class="a" y1="157.936" transform="translate(1042.676 7185.74)"/><g transform="translate(737.398 7419.762)"><path class="a" d="M332.549,318.283h0Z" transform="translate(-332.549 -318.283)"/></g><path class="e" d="M304.994,207.859a76.087,76.087,0,0,0,76.087,76.087" transform="translate(661.6 7531.617)"/><path class="e" d="M304.994,367.277a76.087,76.087,0,0,1,76.087-76.087" transform="translate(661.6 7682.311)"/><line class="e" y1="157.936" transform="translate(1042.676 7815.564)"/><path class="e" d="M332.549,318.283h0Z" transform="translate(420.951 7731.303)"/><ellipse class="f" cx="54.979" cy="54.553" rx="54.979" ry="54.553" transform="translate(991.696 6739.193)"/><g transform="translate(987.695 7995.035)"><ellipse class="g" cx="54.979" cy="54.553" rx="54.979" ry="54.553" transform="translate(0.001)"/></g><g transform="translate(989.5 8308)"><ellipse class="g" cx="54.979" cy="54.553" rx="54.979" ry="54.553" transform="translate(0.001)"/></g><text class="h" transform="translate(1163.5 7083.486)"><tspan x="0" y="0">Active</tspan></text><text class="d" transform="translate(1146.5 8348.129)"><tspan x="0" y="0">Launch Mainnet / Standard Euro</tspan></text><text class="d" transform="translate(1146.5 8971.943)"><tspan x="0" y="0">Standard USD</tspan></text><text class="d" transform="translate(1148.504 9606.943)"><tspan x="0" y="0">Opening of First Native Asset Backed Banking Facility</tspan></text><text class="c" transform="translate(573.398 8660.613)"><tspan x="0" y="0">Prediction Market Implementation</tspan></text><path class="e" d="M381.081,207.859a76.087,76.087,0,0,1-76.087,76.087" transform="translate(737.682 8468.584)"/><path class="e" d="M381.081,207.859a76.087,76.087,0,0,1-76.087,76.087" transform="translate(739.686 9103.584)"/><path class="e" d="M381.081,367.277a76.087,76.087,0,0,0-76.087-76.087" transform="translate(737.682 7995.217)"/><path class="e" d="M381.081,367.277a76.087,76.087,0,0,0-76.087-76.087" transform="translate(737.682 8619.273)"/><path class="e" d="M381.081,367.277a76.087,76.087,0,0,0-76.087-76.087" transform="translate(739.686 9254.273)"/><line class="e" y1="157.936" transform="translate(1042.676 8128.473)"/><line class="e" y1="157.936" transform="translate(1042.676 8752.531)"/><line class="e" y1="157.936" transform="translate(1044.68 9387.531)"/><path class="e" d="M304.994,207.859a76.087,76.087,0,0,0,76.087,76.087" transform="translate(661.6 8158.475)"/><path class="e" d="M304.994,207.859a76.087,76.087,0,0,0,76.087,76.087" transform="translate(661.6 8783.984)"/><path class="e" d="M304.994,367.277a76.087,76.087,0,0,1,76.087-76.087" transform="translate(661.6 8309.166)"/><path class="e" d="M304.994,367.277a76.087,76.087,0,0,1,76.087-76.087" transform="translate(661.6 8934.678)"/><line class="e" y1="157.936" transform="translate(1042.676 8442.422)"/><line class="e" y1="157.936" transform="translate(1042.676 9067.932)"/><path class="e" d="M332.549,318.283h0Z" transform="translate(240.849 8358.16)"/><path class="e" d="M332.549,318.283h0Z" transform="translate(338.951 8983.672)"/><g transform="translate(987.699 8621.893)"><ellipse class="g" cx="54.978" cy="54.552" rx="54.978" ry="54.552" transform="translate(-0.001 0)"/></g><g transform="translate(987.699 8932.002)"><ellipse class="g" cx="54.978" cy="54.552" rx="54.978" ry="54.552" transform="translate(-0.001)"/></g><g transform="translate(989.703 9567.002)"><ellipse class="g" cx="54.978" cy="54.552" rx="54.978" ry="54.552" transform="translate(-0.001)"/></g><path class="e" d="M693.984,318.283h0Z" transform="translate(787.516 8044.211)"/><path class="e" d="M506.984,318.283h0Z" transform="translate(787.516 8668.27)"/><path class="e" d="M896.916,318.283h0Z" transform="translate(789.52 9303.27)"/><g transform="translate(1016.75 8026.473)"><path class="i" d="M419.4,350.391a37.778,37.778,0,0,1-1.284,7.574l-.013.047a42.471,42.471,0,0,1-3.352,8.407q-.4.771-.836,1.528a41.544,41.544,0,0,1-8.016,10.135,1.578,1.578,0,0,0-.526,1.2,28.653,28.653,0,0,1-7.349,17.96c-.318.36-.648.711-1,1.042a1.154,1.154,0,0,1-1.273.3,1.183,1.183,0,0,1-.781-1.048c-.394-2.818-.8-5.634-1.225-8.582-.367.325-.675.6-.982.871a1.233,1.233,0,0,1-2.025-.062q-7.1-7.1-14.2-14.2a1.229,1.229,0,0,1-.058-2.023l.868-.976c-1.4-.205-2.692-.4-3.986-.583-1.567-.224-3.135-.44-4.7-.663a1.131,1.131,0,0,1-1-.777,1.162,1.162,0,0,1,.35-1.261,28.273,28.273,0,0,1,13.53-7.541,50.155,50.155,0,0,1,5.48-.793,1.829,1.829,0,0,0,1.234-.576,44.629,44.629,0,0,1,6.232-5.491,42.305,42.305,0,0,1,7.059-4.14,44.325,44.325,0,0,1,8.228-2.869,37.3,37.3,0,0,1,7.588-1.017,2.289,2.289,0,0,1,1.5.263,1.5,1.5,0,0,1,.605,1.272Q419.463,349.393,419.4,350.391ZM378.772,374.41,391.9,387.542c.079-.068.2-.17.32-.276,3.372-3.01,6.706-6.064,10.125-9.02a43.653,43.653,0,0,0,9.333-10.962c2.948-5.041,4.989-9.99,5.365-15.873.034-.538.127-1.36.127-2.39-2.116-.137-5.625.749-8.376,1.445a36.847,36.847,0,0,0-7.749,3.008,40.853,40.853,0,0,0-10.977,8.312c-2.955,3.131-5.754,6.41-8.622,9.622C380.535,372.428,379.627,373.45,378.772,374.41Zm6.833-11.1a26.876,26.876,0,0,0-14.3,6.055c.168.033.229.048.292.058,2.411.349,4.82.706,7.234,1.028a.906.906,0,0,0,.659-.294c1.509-1.658,3-3.336,4.489-5.009C384.494,364.571,385.008,363.988,385.6,363.314Zm17.386,17.447a3.071,3.071,0,0,0-.273.186c-2.218,1.977-4.441,3.949-6.639,5.948a.991.991,0,0,0-.21.742c.1.954.259,1.9.4,2.852.213,1.471.428,2.941.659,4.533A26.9,26.9,0,0,0,402.991,380.76Z" transform="translate(-367.601 -346.846)"/><path class="i" d="M593.014,422.579a5.7,5.7,0,1,1-5.687-5.726A5.724,5.724,0,0,1,593.014,422.579Zm-5.719,3.382a3.408,3.408,0,1,0-3.39-3.4A3.388,3.388,0,0,0,587.3,425.961Z" transform="translate(-551.125 -406.879)"/><line class="j" x1="8.876" y2="8.876" transform="translate(2.16 40.625)"/><line class="j" x1="8.876" y2="8.876" transform="translate(-0.001 34.072)"/><line class="j" x1="8.876" y2="8.876" transform="translate(8.875 42.948)"/></g><g transform="translate(1023.418 6766.854)"><g transform="translate(-0.001 0)"><path class="i" d="M448.48,445.08q0-12.52,0-25.04c0-1.518.286-1.8,1.792-1.8q14.273,0,28.546-.013a2.365,2.365,0,0,1,1.843.748q3.806,3.866,7.673,7.672a2.106,2.106,0,0,1,.678,1.619q-.019,21.075-.011,42.151c0,1.234-.363,1.593-1.585,1.593q-18.655,0-37.31,0c-1.277,0-1.624-.346-1.625-1.636Q448.477,457.725,448.48,445.08Zm2.406-24.48v49.029h35.725V428.979h-.956c-1.976,0-3.952.008-5.928,0-1.072-.006-1.46-.4-1.465-1.458-.008-1.67,0-3.34,0-5.009V420.6Zm33.7,6.008-3.938-3.941v3.941Z" transform="translate(-448.48 -418.223)"/><path class="i" d="M497.023,533.768q5.213,0,10.425,0a3.136,3.136,0,0,1,.747.035,1.107,1.107,0,0,1,.927,1.126,1.119,1.119,0,0,1-.914,1.139,2.165,2.165,0,0,1-.58.035H486.195c-.891-.019-1.426-.454-1.431-1.163s.528-1.17,1.418-1.172Q491.6,533.761,497.023,533.768Z" transform="translate(-476.685 -508.038)"/><path class="i" d="M496.968,510.805q-5.17,0-10.34,0a6.513,6.513,0,0,1-.833-.025,1.064,1.064,0,0,1-1-1.051,1.047,1.047,0,0,1,.842-1.176,4.048,4.048,0,0,1,.99-.082q10.341-.006,20.681,0h.25c1.033.014,1.593.429,1.592,1.181s-.533,1.154-1.6,1.155Q502.263,510.809,496.968,510.805Z" transform="translate(-476.708 -488.374)"/><path class="i" d="M496.986,559.09c3.5,0,7.005-.006,10.507.009a1.88,1.88,0,0,1,1.1.227,1.382,1.382,0,0,1,.478,1.044,1.5,1.5,0,0,1-.7.915,2.137,2.137,0,0,1-1.053.137q-10.382.01-20.764.005c-.139,0-.278,0-.417,0-.88-.042-1.408-.512-1.38-1.226.027-.686.524-1.1,1.389-1.106,3.252-.009,6.5,0,9.757,0Z" transform="translate(-476.678 -527.723)"/><path class="i" d="M496.965,586.554q-5.17,0-10.34,0a6.357,6.357,0,0,1-.833-.025,1.063,1.063,0,0,1-.993-1.055,1.048,1.048,0,0,1,.846-1.174,4.087,4.087,0,0,1,.991-.08q10.341-.006,20.681,0c.111,0,.222,0,.334,0,.961.022,1.508.454,1.5,1.185s-.526,1.148-1.516,1.15Q502.3,586.56,496.965,586.554Z" transform="translate(-476.709 -547.256)"/><path class="i" d="M491.432,483.338c1.75,0,3.5-.008,5.249,0,.91.005,1.426.439,1.425,1.153s-.531,1.172-1.426,1.175q-5.249.017-10.5,0c-.9,0-1.423-.467-1.424-1.176s.514-1.147,1.425-1.152C487.933,483.33,489.683,483.338,491.432,483.338Z" transform="translate(-476.681 -468.838)"/></g></g><g transform="translate(989.703 9247.402)"><ellipse class="g" cx="54.978" cy="54.552" rx="54.978" ry="54.552" transform="translate(0.001)"/><g transform="translate(28.652 344.679)"><g transform="translate(0 0)"><path class="i" d="M64.022,31.853H13.946a.8.8,0,0,1-.455-1.448L38.529,12.893a.8.8,0,0,1,.912,0L64.479,30.405a.8.8,0,0,1-.455,1.448ZM16.463,30.262H61.5L38.984,14.516Z" transform="translate(-12.961 -12.75)"/><path class="i" d="M26.434,34.4h-8.15a.8.8,0,0,1-.8-.8V30.052a.8.8,0,0,1,.8-.8h8.15a.8.8,0,0,1,.8.8V33.6A.8.8,0,0,1,26.434,34.4ZM19.079,32.8h6.559V30.847H19.079Z" transform="translate(-12.697 -11.744)"/><path class="i" d="M26.434,59.035h-8.15a.8.8,0,0,1-.8-.8V54.688a.8.8,0,0,1,.8-.8h8.15a.8.8,0,0,1,.8.8V58.24A.8.8,0,0,1,26.434,59.035Zm-7.354-1.591h6.559V55.483H19.079Z" transform="translate(-12.697 -10.242)"/><path class="i" d="M25.264,56.781H19.323a.8.8,0,0,1-.8-.8V33.4a.8.8,0,0,1,.8-.8h5.941a.8.8,0,0,1,.8.8V55.985A.8.8,0,0,1,25.264,56.781Zm-5.141-1.591h4.35v-21h-4.35Z" transform="translate(-12.633 -11.54)"/><path class="i" d="M37.114,34.4H28.963a.8.8,0,0,1-.8-.8V30.052a.8.8,0,0,1,.8-.8h8.151a.8.8,0,0,1,.8.8V33.6A.8.8,0,0,1,37.114,34.4ZM29.758,32.8h6.56V30.847h-6.56Z" transform="translate(-12.046 -11.744)"/><path class="i" d="M37.114,59.035H28.963a.8.8,0,0,1-.8-.8V54.688a.8.8,0,0,1,.8-.8h8.151a.8.8,0,0,1,.8.8V58.24A.8.8,0,0,1,37.114,59.035Zm-7.356-1.591h6.56V55.483h-6.56Z" transform="translate(-12.046 -10.242)"/><path class="i" d="M35.944,56.781H30a.8.8,0,0,1-.8-.8V33.4a.8.8,0,0,1,.8-.8h5.941a.8.8,0,0,1,.8.8V55.985A.8.8,0,0,1,35.944,56.781ZM30.8,55.189h4.35v-21H30.8Z" transform="translate(-11.983 -11.54)"/><path class="i" d="M47.793,34.4H39.646a.8.8,0,0,1-.8-.8V30.052a.8.8,0,0,1,.8-.8H47.8a.8.8,0,0,1,.8.8V33.6A.8.8,0,0,1,47.793,34.4ZM40.438,32.8H47V30.847H40.438Z" transform="translate(-11.395 -11.744)"/><path class="i" d="M47.793,59.035H39.646a.8.8,0,0,1-.8-.8V54.688a.8.8,0,0,1,.8-.8H47.8a.8.8,0,0,1,.8.8V58.24a.8.8,0,0,1-.8.8Zm-7.354-1.591H47V55.483H40.438Z" transform="translate(-11.395 -10.242)"/><path class="i" d="M46.623,56.781H40.682a.8.8,0,0,1-.8-.8V33.4a.8.8,0,0,1,.8-.8h5.941a.8.8,0,0,1,.8.8V55.985A.8.8,0,0,1,46.623,56.781Zm-5.141-1.591h4.35v-21h-4.35Z" transform="translate(-11.332 -11.54)"/><path class="i" d="M58.473,34.4H50.322a.8.8,0,0,1-.8-.8V30.052a.8.8,0,0,1,.8-.8h8.151a.8.8,0,0,1,.8.8V33.6A.8.8,0,0,1,58.473,34.4ZM51.117,32.8h6.56V30.847h-6.56Z" transform="translate(-10.744 -11.744)"/><path class="i" d="M58.473,59.035H50.322a.8.8,0,0,1-.8-.8V54.688a.8.8,0,0,1,.8-.8h8.151a.8.8,0,0,1,.8.8V58.24A.8.8,0,0,1,58.473,59.035Zm-7.356-1.591h6.56V55.483h-6.56Z" transform="translate(-10.744 -10.242)"/><path class="i" d="M57.3,56.781H51.361a.8.8,0,0,1-.8-.8V33.4a.8.8,0,0,1,.8-.8H57.3a.8.8,0,0,1,.8.8V55.985A.8.8,0,0,1,57.3,56.781Zm-5.141-1.591h4.35v-21h-4.35Z" transform="translate(-10.681 -11.54)"/><path class="i" d="M64.222,62.555H13.768a.8.8,0,0,1-.8-.8V58.036a.8.8,0,0,1,.8-.8H64.222a.8.8,0,0,1,.8.8V61.76A.8.8,0,0,1,64.222,62.555ZM14.563,60.964H63.426V58.831H14.563Z" transform="translate(-12.972 -10.038)"/><path class="i" d="M37.7,24.223a3.413,3.413,0,1,1,3.413-3.413A3.413,3.413,0,0,1,37.7,24.223Zm0-5.234a1.822,1.822,0,1,0,1.822,1.822A1.822,1.822,0,0,0,37.7,18.989Z" transform="translate(-11.673 -12.467)"/></g></g></g><text class="c" transform="translate(941.5 9285.471)"><tspan x="-221.148" y="0">The Standard Debit Card</tspan></text><g transform="translate(18618.695 5915.207)"><g transform="translate(-17631 1450)"><ellipse class="f" cx="56.986" cy="56.544" rx="56.986" ry="56.544" transform="translate(0)"/></g><g transform="translate(-17620.891 1455.76)"><path class="k" d="M531.568,578.906q-12.428-6.212-24.859-12.415a1.426,1.426,0,0,1-.889-1.454q.023-14.985,0-29.97a1.37,1.37,0,0,1,.787-1.4q11.766-6.093,23.515-12.219c.145-.076.285-.162.428-.243h.564q4.167,2.024,8.336,4.046,8.688,4.188,17.385,8.355a1.437,1.437,0,0,1,.929,1.483q-.026,14.979,0,29.96a1.427,1.427,0,0,1-.9,1.45q-12.135,6.037-24.256,12.109l-.6.3Zm-23.789-42.643c-.01.232-.021.362-.021.492q0,13.807-.013,27.612a.73.73,0,0,0,.515.741q10.978,5.477,21.949,10.967c.178.089.363.161.621.275v-.693q0-13.636.012-27.273a.888.888,0,0,0-.594-.927q-10.908-5.429-21.8-10.887C508.251,536.475,508.049,536.389,507.778,536.264Zm48.052,0c-.256.114-.443.187-.62.277q-10.949,5.47-21.9,10.937a.855.855,0,0,0-.563.889q.024,13.663.012,27.329v.663c.282-.128.47-.2.651-.295q10.924-5.46,21.85-10.911a.886.886,0,0,0,.583-.932q-.025-13.636-.012-27.273Zm-46.9-1.625c.143.088.2.132.27.166q11.119,5.558,22.232,11.122a.814.814,0,0,0,.829-.058q10.889-5.451,21.78-10.9c.165-.083.325-.173.534-.285-.215-.113-.375-.2-.54-.283q-11.349-5.467-22.7-10.941a.965.965,0,0,0-.982.02q-9.8,5.116-19.608,10.21C510.17,533.994,509.589,534.294,508.93,534.636Z" transform="translate(-484.912 -499.45)"/><path class="k" d="M15.652,6.083a1.088,1.088,0,0,1-1.185.767c-6.514-.01-4.35-.007-10.864-.007h-.34c.089.093.144.153.2.21Q5.012,8.6,6.56,10.136a.93.93,0,0,1,.259.979.9.9,0,0,1-.72.65.948.948,0,0,1-.9-.3Q3.45,9.717,1.7,7.978c-.41-.407-.83-.8-1.224-1.227A5.8,5.8,0,0,1,0,6.083V5.7a4.769,4.769,0,0,1,.472-.668C2.036,3.465,3.612,1.907,5.181.341A.968.968,0,0,1,6.1.021a.9.9,0,0,1,.72.65.917.917,0,0,1-.243.962C5.989,2.22,5.4,2.8,4.811,3.392c-.5.5-1,1.009-1.538,1.55h.306c6.522,0,4.366,0,10.889-.006a1.084,1.084,0,0,1,1.185.767Z" transform="translate(52.77) rotate(90)"/><path class="k" d="M15.653,5.7a1.088,1.088,0,0,0-1.185-.766c-6.514.01-4.35.006-10.864.006h-.34c.089-.093.144-.153.2-.21q1.548-1.541,3.1-3.081A.929.929,0,0,0,6.82.671.9.9,0,0,0,6.1.021a.948.948,0,0,0-.9.3Q3.45,2.068,1.7,3.806c-.41.407-.83.8-1.224,1.226A5.8,5.8,0,0,0,0,5.7v.38a4.756,4.756,0,0,0,.472.667c1.563,1.57,3.14,3.128,4.708,4.692a.968.968,0,0,0,.919.32.9.9,0,0,0,.72-.65.916.916,0,0,0-.243-.961C5.989,9.561,5.4,8.977,4.811,8.389c-.5-.5-1-1.008-1.538-1.55h.306c6.522,0,4.366,0,10.889.006a1.085,1.085,0,0,0,1.185-.766Z" transform="translate(40.982 102.436) rotate(-90)"/><path class="k" d="M15.652,6.08a1.088,1.088,0,0,1-1.185.766C7.953,6.837,10.117,6.84,3.6,6.84h-.34c.089.093.144.153.2.21q1.548,1.541,3.1,3.081a.929.929,0,0,1,.259.978.9.9,0,0,1-.72.65.948.948,0,0,1-.9-.3Q3.45,9.712,1.7,7.974c-.41-.407-.83-.8-1.224-1.226A5.8,5.8,0,0,1,0,6.08V5.7a4.756,4.756,0,0,1,.472-.667C2.036,3.463,3.612,1.906,5.181.341A.968.968,0,0,1,6.1.021a.9.9,0,0,1,.72.65.916.916,0,0,1-.243.961C5.989,2.219,5.4,2.8,4.811,3.391c-.5.5-1,1.008-1.538,1.55h.306c6.522,0,4.366,0,10.889-.006a1.084,1.084,0,0,1,1.185.766Z" transform="translate(0 45.325)"/><path class="k" d="M0,6.08a1.088,1.088,0,0,0,1.185.766C7.7,6.837,5.535,6.84,12.05,6.84h.34c-.089.093-.144.153-.2.21q-1.548,1.541-3.1,3.081a.929.929,0,0,0-.259.978.9.9,0,0,0,.72.65.948.948,0,0,0,.9-.3q1.748-1.743,3.5-3.482c.41-.407.83-.8,1.224-1.226a5.8,5.8,0,0,0,.473-.667V5.7a4.756,4.756,0,0,0-.472-.667c-1.563-1.57-3.14-3.128-4.709-4.692a.968.968,0,0,0-.919-.32.9.9,0,0,0-.72.65.916.916,0,0,0,.243.961c.587.588,1.179,1.172,1.766,1.759.5.5,1,1.008,1.538,1.55h-.306c-6.522,0-4.366,0-10.889-.006A1.085,1.085,0,0,0,0,5.7Z" transform="translate(78.107 45.325)"/><path class="l" d="M-17592.584,1481.094h33.387s2.436,27.849-17.252,26.2C-17596.111,1505.65-17592.584,1481.094-17592.584,1481.094Z" transform="translate(17643.564 -1418.428)"/><g transform="translate(49.943 42.495)"><path class="i" d="M51.956-.187a13.115,13.115,0,0,0-13.1,13.1v5.254h-4.4V29.676a17.52,17.52,0,0,0,17.5,17.492h.007a17.521,17.521,0,0,0,17.5-17.492V18.168h-4.4V12.914A13.117,13.117,0,0,0,51.956-.187Zm-10.866,13.1a10.87,10.87,0,1,1,21.739,0v5.254H41.089ZM67.23,20.4v9.28A15.288,15.288,0,0,1,51.969,44.953h-.007A15.291,15.291,0,0,1,36.688,29.7V20.4Z" transform="translate(-34.457 0.187)"/><path class="i" d="M43.019,22.427a1.12,1.12,0,0,0,1.119-1.119v-4.6l.212-.058a4.859,4.859,0,1,0-2.651,0l.212.058v4.534A1.159,1.159,0,0,0,43.019,22.427Zm-2.627-10.45a2.63,2.63,0,1,1,2.63,2.63A2.638,2.638,0,0,1,40.392,11.977Z" transform="translate(-25.524 17.793)"/></g></g></g><g transform="translate(18618.695 6232.932)"><g transform="translate(-17631 1450)"><ellipse class="g" cx="56.986" cy="56.544" rx="56.986" ry="56.544" transform="translate(0)"/></g><g transform="translate(-17620.891 1455.76)"><path class="k" d="M531.568,578.906q-12.428-6.212-24.859-12.415a1.426,1.426,0,0,1-.889-1.454q.023-14.985,0-29.97a1.37,1.37,0,0,1,.787-1.4q11.766-6.093,23.515-12.219c.145-.076.285-.162.428-.243h.564q4.167,2.024,8.336,4.046,8.688,4.188,17.385,8.355a1.437,1.437,0,0,1,.929,1.483q-.026,14.979,0,29.96a1.427,1.427,0,0,1-.9,1.45q-12.135,6.037-24.256,12.109l-.6.3Zm-23.789-42.643c-.01.232-.021.362-.021.492q0,13.807-.013,27.612a.73.73,0,0,0,.515.741q10.978,5.477,21.949,10.967c.178.089.363.161.621.275v-.693q0-13.636.012-27.273a.888.888,0,0,0-.594-.927q-10.908-5.429-21.8-10.887C508.251,536.475,508.049,536.389,507.778,536.264Zm48.052,0c-.256.114-.443.187-.62.277q-10.949,5.47-21.9,10.937a.855.855,0,0,0-.563.889q.024,13.663.012,27.329v.663c.282-.128.47-.2.651-.295q10.924-5.46,21.85-10.911a.886.886,0,0,0,.583-.932q-.025-13.636-.012-27.273Zm-46.9-1.625c.143.088.2.132.27.166q11.119,5.558,22.232,11.122a.814.814,0,0,0,.829-.058q10.889-5.451,21.78-10.9c.165-.083.325-.173.534-.285-.215-.113-.375-.2-.54-.283q-11.349-5.467-22.7-10.941a.965.965,0,0,0-.982.02q-9.8,5.116-19.608,10.21C510.17,533.994,509.589,534.294,508.93,534.636Z" transform="translate(-484.912 -499.45)"/><path class="k" d="M15.652,6.083a1.088,1.088,0,0,1-1.185.767c-6.514-.01-4.35-.007-10.864-.007h-.34c.089.093.144.153.2.21Q5.012,8.6,6.56,10.136a.93.93,0,0,1,.259.979.9.9,0,0,1-.72.65.948.948,0,0,1-.9-.3Q3.45,9.717,1.7,7.978c-.41-.407-.83-.8-1.224-1.227A5.8,5.8,0,0,1,0,6.083V5.7a4.769,4.769,0,0,1,.472-.668C2.036,3.465,3.612,1.907,5.181.341A.968.968,0,0,1,6.1.021a.9.9,0,0,1,.72.65.917.917,0,0,1-.243.962C5.989,2.22,5.4,2.8,4.811,3.392c-.5.5-1,1.009-1.538,1.55h.306c6.522,0,4.366,0,10.889-.006a1.084,1.084,0,0,1,1.185.767Z" transform="translate(52.77) rotate(90)"/><path class="k" d="M15.653,5.7a1.088,1.088,0,0,0-1.185-.766c-6.514.01-4.35.006-10.864.006h-.34c.089-.093.144-.153.2-.21q1.548-1.541,3.1-3.081A.929.929,0,0,0,6.82.671.9.9,0,0,0,6.1.021a.948.948,0,0,0-.9.3Q3.45,2.068,1.7,3.806c-.41.407-.83.8-1.224,1.226A5.8,5.8,0,0,0,0,5.7v.38a4.756,4.756,0,0,0,.472.667c1.563,1.57,3.14,3.128,4.708,4.692a.968.968,0,0,0,.919.32.9.9,0,0,0,.72-.65.916.916,0,0,0-.243-.961C5.989,9.561,5.4,8.977,4.811,8.389c-.5-.5-1-1.008-1.538-1.55h.306c6.522,0,4.366,0,10.889.006a1.085,1.085,0,0,0,1.185-.766Z" transform="translate(40.982 102.436) rotate(-90)"/><path class="k" d="M15.652,6.08a1.088,1.088,0,0,1-1.185.766C7.953,6.837,10.117,6.84,3.6,6.84h-.34c.089.093.144.153.2.21q1.548,1.541,3.1,3.081a.929.929,0,0,1,.259.978.9.9,0,0,1-.72.65.948.948,0,0,1-.9-.3Q3.45,9.712,1.7,7.974c-.41-.407-.83-.8-1.224-1.226A5.8,5.8,0,0,1,0,6.08V5.7a4.756,4.756,0,0,1,.472-.667C2.036,3.463,3.612,1.906,5.181.341A.968.968,0,0,1,6.1.021a.9.9,0,0,1,.72.65.916.916,0,0,1-.243.961C5.989,2.219,5.4,2.8,4.811,3.391c-.5.5-1,1.008-1.538,1.55h.306c6.522,0,4.366,0,10.889-.006a1.084,1.084,0,0,1,1.185.766Z" transform="translate(0 45.325)"/><path class="k" d="M0,6.08a1.088,1.088,0,0,0,1.185.766C7.7,6.837,5.535,6.84,12.05,6.84h.34c-.089.093-.144.153-.2.21q-1.548,1.541-3.1,3.081a.929.929,0,0,0-.259.978.9.9,0,0,0,.72.65.948.948,0,0,0,.9-.3q1.748-1.743,3.5-3.482c.41-.407.83-.8,1.224-1.226a5.8,5.8,0,0,0,.473-.667V5.7a4.756,4.756,0,0,0-.472-.667c-1.563-1.57-3.14-3.128-4.709-4.692a.968.968,0,0,0-.919-.32.9.9,0,0,0-.72.65.916.916,0,0,0,.243.961c.587.588,1.179,1.172,1.766,1.759.5.5,1,1.008,1.538,1.55h-.306c-6.522,0-4.366,0-10.889-.006A1.085,1.085,0,0,0,0,5.7Z" transform="translate(78.107 45.325)"/></g></g><g transform="translate(18620.703 5605.099)"><g transform="translate(-17631 1450)"><ellipse class="f" cx="54.979" cy="54.553" rx="54.979" ry="54.553" transform="translate(0)"/></g><g transform="translate(-17621.244 1455.558)"><path class="k" d="M530.661,576.875q-11.99-5.994-23.984-11.978a1.375,1.375,0,0,1-.858-1.4q.022-14.457,0-28.915a1.322,1.322,0,0,1,.76-1.353q11.352-5.878,22.687-11.788c.14-.073.275-.157.413-.234h.544q4.021,1.953,8.042,3.9,8.382,4.041,16.773,8.061a1.387,1.387,0,0,1,.9,1.431q-.025,14.452,0,28.905a1.377,1.377,0,0,1-.865,1.4q-11.708,5.824-23.4,11.683l-.576.29Zm-22.952-41.141c-.01.224-.021.349-.021.474q0,13.321-.013,26.64a.7.7,0,0,0,.5.715q10.592,5.284,21.176,10.581c.172.086.35.155.6.265v-.668q0-13.156.011-26.312a.857.857,0,0,0-.573-.894q-10.524-5.238-21.032-10.5C508.165,535.937,507.971,535.854,507.709,535.733Zm46.361,0c-.247.11-.427.181-.6.267q-10.564,5.278-21.13,10.552a.825.825,0,0,0-.543.858q.023,13.182.012,26.366v.64c.272-.123.453-.2.628-.284q10.539-5.268,21.081-10.527a.855.855,0,0,0,.563-.9q-.024-13.156-.012-26.313Zm-45.249-1.568c.138.084.2.128.261.16q10.728,5.362,21.45,10.731a.785.785,0,0,0,.8-.056q10.505-5.259,21.013-10.512c.159-.08.313-.167.515-.275-.208-.109-.362-.2-.521-.273q-10.95-5.274-21.9-10.555a.93.93,0,0,0-.947.02q-9.452,4.935-18.918,9.85C510.016,533.544,509.456,533.832,508.821,534.163Z" transform="translate(-485.65 -500.216)"/><path class="k" d="M15.1,5.869a1.049,1.049,0,0,1-1.144.74C7.673,6.6,9.761,6.6,3.476,6.6H3.148c.086.09.139.147.194.2Q4.835,8.293,6.329,9.779a.9.9,0,0,1,.25.944.865.865,0,0,1-.694.627.915.915,0,0,1-.87-.293Q3.329,9.375,1.637,7.7C1.242,7.3.836,6.92.456,6.513A5.6,5.6,0,0,1,0,5.869V5.5a4.6,4.6,0,0,1,.456-.644C1.964,3.343,3.485,1.839,5,.329A.934.934,0,0,1,5.885.02.866.866,0,0,1,6.58.647a.884.884,0,0,1-.235.928c-.567.567-1.137,1.131-1.7,1.7-.485.485-.966.973-1.484,1.5h.3c6.293,0,4.213,0,10.505-.006A1.046,1.046,0,0,1,15.1,5.5Z" transform="translate(50.91) rotate(90)"/><path class="k" d="M15.1,5.5a1.049,1.049,0,0,0-1.144-.739c-6.285.01-4.2.006-10.481.006H3.148c.086-.09.139-.147.194-.2Q4.835,3.076,6.329,1.591A.9.9,0,0,0,6.58.647.864.864,0,0,0,5.885.02a.915.915,0,0,0-.87.293Q3.329,2,1.637,3.672c-.4.393-.8.776-1.181,1.183A5.6,5.6,0,0,0,0,5.5v.367a4.588,4.588,0,0,0,.456.644C1.964,8.024,3.485,9.527,5,11.036a.934.934,0,0,0,.887.309.866.866,0,0,0,.694-.627.884.884,0,0,0-.235-.927c-.567-.567-1.137-1.13-1.7-1.7-.485-.485-.966-.973-1.484-1.5h.3c6.293,0,4.213,0,10.505.006A1.046,1.046,0,0,0,15.1,5.866Z" transform="translate(39.535 98.828) rotate(-90)"/><path class="k" d="M15.1,5.866a1.049,1.049,0,0,1-1.144.739C7.673,6.6,9.761,6.6,3.476,6.6H3.148c.086.09.139.147.194.2Q4.835,8.289,6.329,9.775a.9.9,0,0,1,.25.944.864.864,0,0,1-.694.627.915.915,0,0,1-.87-.293Q3.329,9.37,1.637,7.693C1.242,7.3.836,6.917.456,6.51A5.6,5.6,0,0,1,0,5.866V5.5a4.588,4.588,0,0,1,.456-.644C1.964,3.341,3.485,1.839,5,.329A.934.934,0,0,1,5.885.02.866.866,0,0,1,6.58.647a.884.884,0,0,1-.235.927c-.567.567-1.137,1.13-1.7,1.7-.485.485-.966.973-1.484,1.5h.3c6.292,0,4.212,0,10.505-.006A1.046,1.046,0,0,1,15.1,5.5Z" transform="translate(0 43.729)"/><path class="k" d="M0,5.866a1.049,1.049,0,0,0,1.144.739C7.428,6.6,5.341,6.6,11.625,6.6h.328c-.086.09-.139.147-.194.2Q10.266,8.289,8.772,9.775a.9.9,0,0,0-.25.944.864.864,0,0,0,.694.627.915.915,0,0,0,.87-.293q1.687-1.682,3.378-3.359c.4-.393.8-.776,1.181-1.183a5.6,5.6,0,0,0,.456-.644V5.5a4.588,4.588,0,0,0-.456-.644C13.138,3.341,11.617,1.839,10.1.329A.934.934,0,0,0,9.216.02a.866.866,0,0,0-.694.627.884.884,0,0,0,.235.927c.567.567,1.137,1.13,1.7,1.7.485.485.966.973,1.484,1.5h-.3c-6.293,0-4.213,0-10.505-.006A1.046,1.046,0,0,0,0,5.5Z" transform="translate(75.354 43.729)"/><g class="m" transform="translate(48 48.822)"><circle class="n" cx="17.452" cy="17.452" r="17.452"/><circle class="o" cx="17.452" cy="17.452" r="16.452"/></g><path class="k" d="M46.753.315h0L44.9-1.539q-1.65-1.646-3.3-3.288a1.145,1.145,0,0,1-.364-.871q.012-2.817.005-5.634v-1.589l.005-.01a.872.872,0,0,0-.874-.871.871.871,0,0,0-.871.871l.005.013,0,1.847c0,2.037,0,4.058-.008,6.078a1.2,1.2,0,0,0,.4.923Q41.979-2,44.061.091l1.457,1.457h0a.889.889,0,0,0,.551.2.872.872,0,0,0,.874-.874A.9.9,0,0,0,46.753.315Z" transform="translate(23.668 71.086)"/></g></g><g transform="translate(668.357 8612.234)"><g transform="translate(348 348)"><path class="i" d="M372.673,348h3.29c.132.029.263.064.4.085,1.351.21,2.721.334,4.05.638a26.268,26.268,0,0,1,19.828,21.057c.161.959.267,1.928.4,2.892v3.29c-.029.133-.067.264-.086.4-.179,1.218-.292,2.449-.541,3.652A26.321,26.321,0,0,1,378.9,400.229c-.976.158-1.96.272-2.94.406h-3.29c-.115-.028-.228-.065-.344-.082-1.2-.175-2.413-.291-3.6-.529a26.32,26.32,0,0,1-20.316-21.068c-.161-.994-.276-1.995-.411-2.993v-3.29c.168-1.165.294-2.339.51-3.5A26.316,26.316,0,0,1,369.731,348.4C370.707,348.244,371.692,348.134,372.673,348Zm24.672,26.3a23.027,23.027,0,1,0-23.038,23.043A23.062,23.062,0,0,0,397.345,374.3Z" transform="translate(-348 -348)"/><path class="i" d="M495.043,449.444c0,.625.01,1.206,0,1.788a1.643,1.643,0,1,1-3.285-.024c-.009-.581,0-1.163,0-1.674a19.881,19.881,0,0,1-2.176-1.011,7.2,7.2,0,0,1-3.571-6.062,1.65,1.65,0,0,1,1.578-1.89,1.671,1.671,0,0,1,1.7,1.782,4.111,4.111,0,1,0,4.126-4.249,7.27,7.27,0,0,1-5.992-3.055,7.381,7.381,0,0,1,3.95-11.454c.115-.032.227-.076.38-.128,0-.572-.006-1.152,0-1.732a1.646,1.646,0,1,1,3.287.02c.007.564,0,1.128,0,1.68.522.2,1.033.348,1.5.584a7.267,7.267,0,0,1,4.244,6.432,1.652,1.652,0,0,1-1.577,1.893,1.671,1.671,0,0,1-1.7-1.782,4.112,4.112,0,1,0-4.127,4.249,7.26,7.26,0,0,1,5.9,2.931,7.391,7.391,0,0,1-3.754,11.559Z" transform="translate(-467.082 -410.14)"/></g></g><g transform="translate(668.748 7986.248)"><path class="i" d="M374.174,348h3.49c.14.03.279.068.42.09,1.433.223,2.886.355,4.3.677a27.866,27.866,0,0,1,21.034,22.339c.171,1.018.283,2.045.423,3.068v3.49c-.031.141-.071.28-.091.422-.19,1.292-.31,2.6-.574,3.874a27.923,27.923,0,0,1-22.39,21.448c-1.036.168-2.079.288-3.119.43h-3.49c-.122-.029-.242-.069-.365-.087-1.274-.186-2.56-.309-3.821-.561a27.921,27.921,0,0,1-21.552-22.351c-.171-1.054-.292-2.116-.436-3.175v-3.49c.178-1.236.312-2.481.541-3.708a27.918,27.918,0,0,1,22.512-22.037C372.089,348.259,373.134,348.142,374.174,348Zm26.173,27.9a24.428,24.428,0,1,0-24.44,24.446A24.466,24.466,0,0,0,400.348,375.9Z" transform="translate(0 0)"/></g></g></svg>