<svg xmlns="http://www.w3.org/2000/svg" width="40.533" height="53.785" viewBox="0 0 40.533 53.785"><g transform="translate(0.001)"><g transform="translate(-0.001 0)"><path d="M448.48,445.08q0-12.52,0-25.04c0-1.518.286-1.8,1.792-1.8q14.273,0,28.546-.013a2.365,2.365,0,0,1,1.843.748q3.806,3.866,7.673,7.672a2.106,2.106,0,0,1,.678,1.619q-.019,21.075-.011,42.151c0,1.234-.363,1.593-1.585,1.593q-18.655,0-37.31,0c-1.277,0-1.624-.346-1.625-1.636Q448.477,457.725,448.48,445.08Zm2.406-24.48v49.029h35.725V428.979h-.956c-1.976,0-3.952.008-5.928,0-1.072-.006-1.46-.4-1.465-1.458-.008-1.67,0-3.34,0-5.009V420.6Zm33.7,6.008-3.938-3.941v3.941Z" transform="translate(-448.48 -418.223)" fill="#fff"/><path d="M497.023,533.768q5.213,0,10.425,0a3.136,3.136,0,0,1,.747.035,1.107,1.107,0,0,1,.927,1.126,1.119,1.119,0,0,1-.914,1.139,2.165,2.165,0,0,1-.58.035H486.195c-.891-.019-1.426-.454-1.431-1.163s.528-1.17,1.418-1.172Q491.6,533.761,497.023,533.768Z" transform="translate(-476.685 -508.038)" fill="#fff"/><path d="M496.968,510.805q-5.17,0-10.34,0a6.513,6.513,0,0,1-.833-.025,1.064,1.064,0,0,1-1-1.051,1.047,1.047,0,0,1,.842-1.176,4.048,4.048,0,0,1,.99-.082q10.341-.006,20.681,0h.25c1.033.014,1.593.429,1.592,1.181s-.533,1.154-1.6,1.155Q502.263,510.809,496.968,510.805Z" transform="translate(-476.708 -488.374)" fill="#fff"/><path d="M496.986,559.09c3.5,0,7.005-.006,10.507.009a1.88,1.88,0,0,1,1.1.227,1.382,1.382,0,0,1,.478,1.044,1.5,1.5,0,0,1-.7.915,2.137,2.137,0,0,1-1.053.137q-10.382.01-20.764.005c-.139,0-.278,0-.417,0-.88-.042-1.408-.512-1.38-1.226.027-.686.524-1.1,1.389-1.106,3.252-.009,6.5,0,9.757,0Z" transform="translate(-476.678 -527.723)" fill="#fff"/><path d="M496.965,586.554q-5.17,0-10.34,0a6.357,6.357,0,0,1-.833-.025,1.063,1.063,0,0,1-.993-1.055,1.048,1.048,0,0,1,.846-1.174,4.087,4.087,0,0,1,.991-.08q10.341-.006,20.681,0c.111,0,.222,0,.334,0,.961.022,1.508.454,1.5,1.185s-.526,1.148-1.516,1.15Q502.3,586.56,496.965,586.554Z" transform="translate(-476.709 -547.256)" fill="#fff"/><path d="M491.432,483.338c1.75,0,3.5-.008,5.249,0,.91.005,1.426.439,1.425,1.153s-.531,1.172-1.426,1.175q-5.249.017-10.5,0c-.9,0-1.423-.467-1.424-1.176s.514-1.147,1.425-1.152C487.933,483.33,489.683,483.338,491.432,483.338Z" transform="translate(-476.681 -468.838)" fill="#fff"/></g></g></svg>