<svg xmlns="http://www.w3.org/2000/svg" width="50.258" height="50.247" viewBox="0 0 50.258 50.247"><defs><style>.a{fill:#fff;}</style></defs><path class="a" d="M1053.584,724.245h-47.974V718h2.157a.758.758,0,0,0,.757-.768.775.775,0,0,0-.757-.768h-2.157v-6.758h2.157a.773.773,0,0,0,.757-.768.76.76,0,0,0-.757-.768h-2.157v-6.779h2.157a.758.758,0,0,0,0-1.516h-2.157V693.1h2.157a.769.769,0,0,0,0-1.537h-2.157V684.8h2.157a.775.775,0,0,0,.757-.768.758.758,0,0,0-.757-.768h-2.157v-6.24h2.157a.757.757,0,1,0,0-1.514h-2.926a.755.755,0,0,0-.759.745V724.99a.762.762,0,0,0,.759.768h48.742a.757.757,0,1,0,0-1.514Z" transform="translate(-1004.083 -675.512)"/></svg>