<svg xmlns="http://www.w3.org/2000/svg" width="41.886" height="34.739" viewBox="0 0 41.886 34.739"><defs><style>.a{fill:#fff;}</style></defs><path class="a" d="M1208.164,840.709h-3.932l-2.622-1.944,7.1-7.166a.772.772,0,0,0-.012-1.086.811.811,0,0,0-1.074,0l-7.256,7.323-4.058-3.027a.842.842,0,0,0-.463-.157H1184.1a2.849,2.849,0,0,0-2.838-2.622,2.773,2.773,0,0,0-1.423.407l-5.256-5.833a.769.769,0,0,0-.565-.248H1167.8a.758.758,0,0,0-.757.769.775.775,0,0,0,.757.768h5.888l5.1,5.627a2.842,2.842,0,1,0,5.018,2.669h11.8l3.685,2.733-2.259,2.285a2.719,2.719,0,0,0-1.289-.317,2.841,2.841,0,0,0-2.724,2.078h-5.536a.773.773,0,0,0-.623.317l-2.34,3.254-4.169-3.412a.731.731,0,0,0-.474-.16H1167.8a.758.758,0,0,0,0,1.516h11.788l4.034,3.3-2.5,3.481H1176.5a2.853,2.853,0,0,0-5.606.768,2.8,2.8,0,0,0,.655,1.787l-4.363,6.08a.732.732,0,0,0,.169,1.039.682.682,0,0,0,.442.157.757.757,0,0,0,.62-.315l4.375-6.08a2.733,2.733,0,0,0,.96.18,2.852,2.852,0,0,0,2.736-2.081h5.027a.77.77,0,0,0,.611-.338l2.678-3.708,8.284,6.758a.754.754,0,0,0,.477.181h8.124a.714.714,0,0,0,.565-.271l6.476-7.233a.752.752,0,0,0-.056-1.062.764.764,0,0,0-1.074.046l-6.249,6.983h-7.515l-8.138-6.645,2.171-3.027H1193a2.843,2.843,0,0,0,5.594-.748,2.956,2.956,0,0,0-.44-1.514l2.363-2.372,3,2.236a.794.794,0,0,0,.454.137h4.192a.757.757,0,1,0,0-1.514Zm-26.9-4.476a1.345,1.345,0,1,1,1.333-1.333A1.344,1.344,0,0,1,1181.266,836.232Zm-7.515,17.111a1.323,1.323,0,1,1,1.333-1.312A1.325,1.325,0,0,1,1173.751,853.344Zm21.981-8.275a1.325,1.325,0,0,1-1.322-1.333,1.327,1.327,0,1,1,2.655,0A1.32,1.32,0,0,1,1195.732,845.069Z" transform="translate(-1167.039 -826.356)"/></svg>